<svg width="42" height="42" viewBox="0 0 42 42" fill="none" xmlns="http://www.w3.org/2000/svg">
<path d="M21 41C32.0457 41 41 32.0457 41 21C41 9.9543 32.0457 1 21 1C9.9543 1 1 9.9543 1 21C1 32.0457 9.9543 41 21 41Z" fill="white" stroke="#C75185" style="fill:white;fill-opacity:1;stroke:#C75185;stroke:color(display-p3 0.7804 0.3176 0.5216);stroke-opacity:1;" stroke-width="2" stroke-linecap="round" stroke-linejoin="round"/>
<path d="M20 14.07L15 18.07H11V24.07H15L20 28.07V14.07Z" stroke="#C75185" style="stroke:#C75185;stroke:color(display-p3 0.7804 0.3176 0.5216);stroke-opacity:1;" stroke-width="2" stroke-linecap="round" stroke-linejoin="round"/>
<path d="M28.0691 14C29.9438 15.8753 30.9969 18.4184 30.9969 21.07C30.9969 23.7216 29.9438 26.2647 28.0691 28.14M24.5391 17.53C25.4764 18.4676 26.003 19.7392 26.003 21.065C26.003 22.3908 25.4764 23.6624 24.5391 24.6" stroke="#C75185" style="stroke:#C75185;stroke:color(display-p3 0.7804 0.3176 0.5216);stroke-opacity:1;" stroke-width="2" stroke-linecap="round" stroke-linejoin="round"/>
</svg>
